# AST/ASF file generated using VICON BodyLanguage
# -----------------------------------------------
:version 1.10
:name VICON
:units
  mass 1.0
  length 0.45
  angle deg
:documentation
   .ast/.asf automatically generated from VICON data using
   VICON BodyBuilder and BodyLanguage model FoxedUp or BRILLIANT.MOD
:root
   order TX TY TZ RX RY RZ
   axis XYZ
   position 0 0 0  
   orientation 0 0 0 
:bonedata
  begin
     id 1 
     name lhipjoint
     direction 0.671379 -0.66392 0.329334 
     length 2.38647 
     axis 0 0 0  XYZ
  end
  begin
     id 2 
     name lfemur
     direction 0.34202 -0.939693 0  
     length 6.48179  
     axis 0 0 20  XYZ
    dof rx ry rz
    limits (-160.0 20.0)
           (-70.0 70.0)
           (-60.0 70.0)
  end
  begin
     id 3 
     name ltibia
     direction 0.34202 -0.939693 0   
     length 6.86524   
     axis 0 0 20   XYZ
    dof rx
    limits (-10.0 170.0)
  end
  begin
     id 4 
     name lfoot
     direction 0.204886 -0.562919 0.800715   
     length 1.73031   
     axis -90 7.62852e-016 20   XYZ
    dof rx rz
    limits (-45.0 90.0)
           (-70.0 20.0)
  end
  begin
     id 5 
     name ltoes
     direction 1.53548e-011 -4.21841e-011 1   
     length 0.828161   
     axis -90 7.62852e-016 20   XYZ
    dof rx
    limits (-90.0 20.0)
  end
  begin
     id 6 
     name rhipjoint
     direction -0.662732 -0.670855 0.332775   
     length 2.3618  
     axis 0 0 0  XYZ 
  end
  begin
     id 7 
     name rfemur
     direction -0.34202 -0.939693 0   
     length 6.3025   
     axis 0 0 -20   XYZ
    dof rx ry rz
    limits (-160.0 20.0)
           (-70.0 70.0)
           (-70.0 60.0)
  end
  begin
     id 8 
     name rtibia
     direction -0.34202 -0.939693 0   
     length 6.8732   
     axis 0 0 -20   XYZ
    dof rx
    limits (-10.0 170.0)
 end
 begin
     id 9 
     name rfoot
     direction -0.173856 -0.477665 0.861168   
     length 1.54784  
     axis -90 -7.62852e-016 -20   XYZ
    dof rx rz
    limits (-45.0 90.0)
           (-20.0 70.0)
  end
  begin
     id 10 
     name rtoes
     direction -1.53562e-011 -4.21802e-011 1   
     length 0.759618   
     axis -90 -7.62852e-016 -20   XYZ
    dof rx
    limits (-90.0 20.0)
  end
  begin
     id 11 
     name lowerback
     direction -0.0278357 0.999497 -0.0151789   
     length 1.97203   
     axis 0 0 0   XYZ
    dof rx ry rz
    limits (-20.0 45.0)
           (-30.0 30.0)
           (-30.0 30.0)
  end
  begin
     id 12 
     name upperback
     direction -0.00360622 0.997542 0.0699804   
     length 1.94709   
     axis 0 0 0   XYZ
    dof rx ry rz
    limits (-20.0 45.0)
           (-30.0 30.0)
           (-30.0 30.0)
  end
  begin
     id 13 
     name thorax
     direction 0.00907706 0.997048 0.0762461   
     length 1.95722   
     axis 0 0 0   XYZ
    dof rx ry rz
    limits (-20.0 45.0)
           (-30.0 30.0)
           (-30.0 30.0)
  end
  begin
     id 14 
     name lowerneck
     direction -0.0481835 0.99872 -0.0153927   
     length 1.63078   
     axis 0 0 0   XYZ
    dof rx ry rz
    limits (-20.0 45.0)
           (-30.0 30.0)
           (-30.0 30.0)
  end
  begin
     id 15 
     name upperneck
     direction 0.0859716 0.979226 -0.183644   
     length 1.62591   
     axis 0 0 0   XYZ
    dof rx ry rz
    limits (-20.0 45.0)
           (-30.0 30.0)
           (-30.0 30.0)
  end
  begin
     id 16
     name head
     direction 0.0324821 0.997629 -0.0606773  
     length 1.64811  
     axis 0 0 0   XYZ
    dof rx ry rz
    limits (-20.0 45.0)
           (-30.0 30.0)
           (-30.0 30.0)
  end
  begin
     id 17 
     name lclavicle
     direction 0.939609 0.311019 0.142835  
     length 3.70647  
     axis 0 0 0   XYZ
    dof ry rz
    limits (-20.0 10.0)
           (0.0 20.0)
  end
  begin
     id 18 
     name lhumerus
     direction 1 -4.48963e-011 -1.59838e-027   
     length 4.59207   
     axis 180 -30 -90   XYZ
    dof rx ry rz
    limits (-60.0 90.0)
           (-90.0 90.0)
           (-90.0 90.0)
  end
  begin
     id 19
     name lradius
     direction 1 -4.48957e-011 -1.3483e-026   
     length 2.98109   
     axis 180 -30 -90   XYZ
    dof rx
    limits (-10.0 170.0)
  end
  begin
     id 20
     name lwrist
     direction 1 -4.48954e-011 -3.11579e-026   
     length 1.49055   
     axis 2.00652e-014 90 90   XYZ
    dof ry
    limits (-180.0 0.0)
 end
  begin
     id 21 
     name lhand
     direction 1 -4.4911e-011 -6.23158e-026   
     length 0.480203   
     axis 3.97628e-014 90 90   XYZ
    dof rx rz
    limits (-90.0 90.0)
           (-45.0 45.0)
  end
  begin
     id 22 
     name lfingers
     direction 1 -4.48893e-011 -1.24632e-025   
     length 0.387152   
     axis 7.95256e-014 90 90   XYZ
    dof rx
    limits (0.0 90.0)
  end
  begin
     id 23
     name lthumb
     direction 0.707107 -6.35013e-011 0.707107   
     length 0.555875   
     axis -90 45 2.85299e-015   XYZ
    dof rx rz
    limits (-45.0 45.0)
           (-45.0 45.0)
  end
  begin
     id 24 
     name rclavicle
     direction -0.950396 0.30392 0.0661859   
     length 3.70894  
     axis 0 0 0   XYZ 
    dof ry rz
    limits (-10.0 20.0)
           (-20.0 0.0)
  end
  begin
     id 25 
     name rhumerus
     direction -1 -4.48957e-011 -2.96677e-027  
     length 4.76508   
     axis 180 30 90   XYZ
    dof rx ry rz
    limits (-90.0 60.0)
           (-90.0 90.0)
           (-90.0 90.0)
  end
  begin
     id 26 
     name rradius
     direction -1 -4.48974e-011 -1.44501e-026   
     length 2.78902   
     axis 180 30 90   XYZ
    dof rx
    limits (-10.0 170.0)
  end
  begin
     id 27 
     name rwrist
     direction -1 -4.48978e-011 -3.11579e-026   
     length 1.39451   
     axis 2.00652e-014 -90 -90   XYZ
    dof ry
    limits (-180.0 0.0)
  end
  begin
     id 28
     name rhand
     direction -1 -4.48956e-011 -6.23158e-026   
     length 0.721303   
     axis 3.97628e-014 -90 -90   XYZ
    dof rx rz
    limits (-90.0 90.0)
           (-45.0 45.0)
  end
  begin
     id 29
     name rfingers
     direction -1 -4.4899e-011 -1.24632e-025   
     length 0.581533   
     axis 7.95256e-014 -90 -90   XYZ
    dof rx
    limits (0.0 90.0)
  end
  begin
     id 30
     name rthumb
     direction -0.707107 -6.34911e-011 0.707107   
     length 0.834968   
     axis -90 -45 -2.85299e-015   XYZ
    dof rx rz
    limits (-45.0 45.0)
           (-45.0 45.0)
  end
:hierarchy
  begin
    root lhipjoint rhipjoint lowerback
    lhipjoint lfemur
    lfemur ltibia
    ltibia lfoot
    lfoot ltoes
    rhipjoint rfemur
    rfemur rtibia
    rtibia rfoot
    rfoot rtoes
    lowerback upperback
    upperback thorax
    thorax lowerneck lclavicle rclavicle
    lowerneck upperneck
    upperneck head
    lclavicle lhumerus
    lhumerus lradius
    lradius lwrist
    lwrist lhand lthumb
    lhand lfingers
    rclavicle rhumerus
    rhumerus rradius
    rradius rwrist
    rwrist rhand rthumb
    rhand rfingers
  end

#!OML:ASF I:\salsa\salsa 7_09\Patient 1\Session 1\dancerfemale.ASF
:FULLY-SPECIFIED
:DEGREES
853
root 8.5409 15.8312 1.22294 -25.5375 245.047 36.7331
lowerback 8.13329 9.14105 10.1572
upperback -3.70484 13.4674 2.62013
thorax -6.80473 6.1278 -4.39137
lowerneck 5.80316 -11.1909 -14.159
upperneck 12.2077 -16.9326 10.1773
head 4.79906 -8.78108 4.70135
rclavicle -2.01183e-013 -6.57977e-014
rhumerus -30.8799 19.7055 -100.335
rradius 74.5542
rwrist 5.1175
rhand 3.29681 75.22
rfingers 7.12502
rthumb 28.7441 47.4125
lclavicle -2.01183e-013 -6.57977e-014
lhumerus -65.4854 20.2091 13.7424
lradius 49.9708
lwrist 9.24941
lhand -7.16851 39.8834
lfingers 7.12502
lthumb 18.7088 69.0037
rfemur 1.37114 -11.1739 35.0491
rtibia 15.5634
rfoot -13.4148 2.80625
rtoes -29.7782
lfemur -55.5918 10.5136 -6.46057
ltibia 65.7567
lfoot -14.3386 12.1149
ltoes 11.6225
854
root 8.12 15.8025 1.21307 -24.1696 245.199 34.8279
lowerback 7.91692 10.0314 10.0703
upperback -3.4965 14.5802 2.21336
thorax -6.22142 6.72765 -4.75402
lowerneck 5.70872 -11.4147 -14.2993
upperneck 12.326 -17.2189 10.1147
head 4.89568 -8.92118 4.66637
rclavicle 1.28775e-013 1.98785e-015
rhumerus -30.2787 20.5627 -99.7486
rradius 75.9697
rwrist 5.37314
rhand 3.18859 75.475
rfingers 7.12502
rthumb 28.6407 47.65
lclavicle 1.28775e-013 1.98785e-015
lhumerus -68.167 19.8167 13.2086
lradius 49.0433
lwrist 6.2725
lhand -6.11213 39.4026
lfingers 7.12502
lthumb 19.7246 68.4219
rfemur 5.08093 -9.27433 33.6119
rtibia 12.3612
rfoot -12.0088 1.24519
rtoes -31.0248
lfemur -54.6871 11.5053 -7.58089
ltibia 60.7802
lfoot -17.8874 16.6947
ltoes 8.26258
855
root 7.67505 15.7997 1.21799 -23.2027 245.536 32.729
lowerback 8.47122 10.8568 10.0563
upperback -3.44382 15.7321 1.77045
thorax -6.19734 7.29657 -5.35614
lowerneck 5.81001 -11.6477 -14.3284
upperneck 12.7789 -17.5583 9.83144
head 5.0424 -9.10399 4.54955
rclavicle 4.97956e-014 2.56432e-014
rhumerus -30.0952 21.0803 -99.5038
rradius 77.1332
rwrist 5.9902
rhand 3.18121 75.7311
rfingers 7.12502
rthumb 28.6337 47.905
lclavicle 4.97956e-014 2.56432e-014
lhumerus -70.6349 18.7079 12.907
lradius 48.1739
lwrist 5.42043
lhand -7.12099 39.0466
lfingers 7.12502
lthumb 18.7545 68.1625
rfemur 10.7141 -7.61841 31.8569
rtibia 6.68492
rfoot -8.49827 0.270986
rtoes -32.9656
lfemur -53.0331 12.8213 -9.25491
ltibia 56.5166
lfoot -21.3918 18.2092
ltoes -0.697822
856
root 7.21246 15.8618 1.2332 -22.7423 246.155 31.14
lowerback 8.95487 11.6301 10.2432
upperback -3.39609 16.8237 1.36416
thorax -6.08596 7.83351 -5.99361
lowerneck 6.05847 -11.9194 -14.3845
upperneck 13.1108 -17.9672 9.62351
head 5.14543 -9.32365 4.46557
rclavicle -6.88913e-014 -1.93815e-014
rhumerus -30.0385 21.5438 -99.4434
rradius 78.3691
rwrist 6.26553
rhand 3.5708 75.8569
rfingers 7.12502
rthumb 29.0059 48.0941
lclavicle -6.88913e-014 -1.93815e-014
lhumerus -72.6344 17.3929 13.1976
lradius 46.889
lwrist 6.14583
lhand -9.87647 38.729
lfingers 7.12502
lthumb 16.1026 68.08
rfemur 16.7549 -6.18293 30.1355
rtibia 1.59028e-014
rfoot -4.7068 -0.317191
rtoes -33.0501
lfemur -51.3446 14.814 -11.6463
ltibia 53.3381
lfoot -23.4709 19.4644
ltoes -19.0452
857
root 6.7399 15.8453 1.27186 -23.4488 247.815 31.1455
lowerback 8.80078 12.1059 10.6581
upperback -3.37786 17.4647 1.07161
thorax -5.67413 8.16591 -6.44244
lowerneck 6.48325 -12.1647 -14.63
upperneck 13.1678 -18.3457 9.47889
head 5.15433 -9.53654 4.44802
rclavicle 1.95082e-013 4.80065e-014
rhumerus -30.0917 22.2794 -99.3379
rradius 79.5594
rwrist 5.95625
rhand 3.87847 75.6787
rfingers 7.12502
rthumb 29.2997 47.9669
lclavicle 1.95082e-013 4.80065e-014
lhumerus -74.4029 16.3814 13.646
lradius 45.1291
lwrist 6.88163
lhand -13.2806 38.3175
lfingers 7.12502
lthumb 12.8227 67.9036
rfemur 18.9602 -5.82813 28.5734
rtibia -3.18055e-015
rfoot -2.64827 -0.369907
rtoes -32.8698
lfemur -50.5648 16.1356 -14.537
ltibia 51.6413
lfoot -23.3198 19.4271
ltoes -31.8769
858
root 6.25025 15.8259 1.31369 -25.1887 249.875 32.9411
lowerback 7.60647 12.5481 11.0568
upperback -3.53634 17.9336 0.930055
thorax -4.94792 8.43917 -6.47553
lowerneck 6.67145 -12.4202 -14.6767
upperneck 13.4303 -18.6551 8.87484
head 5.19699 -9.71485 4.24864
rclavicle -5.01807e-014 -4.35338e-014
rhumerus -30.0899 23.1759 -99.0817
rradius 80.3812
rwrist 5.59507
rhand 4.22835 75.6508
rfingers 7.12502
rthumb 29.6337 47.9978
lclavicle -5.01807e-014 -4.35338e-014
lhumerus -75.9845 15.8501 13.5566
lradius 42.9333
lwrist 6.79497
lhand -13.117 37.6947
lfingers 7.12502
lthumb 12.9804 67.2709
rfemur 20.2861 -5.96386 27.5128
rtibia -1.59028e-014
rfoot 1.20124 -0.440719
rtoes -34.5975
lfemur -50.4679 16.9152 -17.3534
ltibia 51.1223
lfoot -23.1385 18.8453
ltoes -32.0917
859
root 5.74079 15.7843 1.35583 -26.5963 252.254 34.7059
lowerback 5.84169 13.037 10.794
upperback -3.82676 18.3322 0.726636
thorax -4.22787 8.69978 -6.1294
lowerneck 6.35855 -12.6492 -14.4549
upperneck 14.217 -18.8559 7.95372
head 5.41416 -9.83149 3.87743
rclavicle -6.25178e-014 -5.96354e-015
rhumerus -30.1489 23.9944 -98.9939
rradius 80.8964
rwrist 5.28306
rhand 4.27027 75.4832
rfingers 7.12502
rthumb 29.6737 47.8374
lclavicle -6.25178e-014 -5.96354e-015
lhumerus -77.3952 15.7792 12.6814
lradius 40.6282
lwrist 5.39373
lhand -13.2541 37.3772
lfingers 7.12502
lthumb 12.8482 66.9618
rfemur 17.92 -6.4275 26.1451
rtibia 6.55847
rfoot 2.68526 -0.223746
rtoes -35.7397
lfemur -50.0498 17.417 -20.6624
ltibia 51.198
lfoot -20.5987 17.0125
ltoes -11.7604
860
root 5.25965 15.6941 1.41128 -30.1393 255.533 38.791
lowerback 4.23607 13.1746 10.4577
upperback -4.32036 18.3004 0.394316
thorax -3.86572 8.71025 -5.95421
lowerneck 6.03379 -12.7656 -14.2727
upperneck 14.7709 -18.8689 7.02848
head 5.54115 -9.85867 3.53353
rclavicle 2.3997e-014 5.56597e-015
rhumerus -30.3043 24.4988 -99.2967
rradius 81.1901
rwrist 5.24363
rhand 3.51904 75.0251
rfingers 7.12502
rthumb 28.9564 47.2539
lclavicle 2.3997e-014 5.56597e-015
lhumerus -79.0381 16.2952 10.1043
lradius 38.0167
lwrist 2.84472
lhand -14.2637 36.4861
lfingers 7.12502
lthumb 11.8748 66.1293
rfemur 14.6326 -8.02801 24.8517
rtibia 13.9853
rfoot 4.26028 0.486166
rtoes -35.1946
lfemur -49.5915 16.6063 -23.7818
ltibia 51.234
lfoot -16.2755 14.2594
ltoes 14.28
861
root 4.77509 15.7347 1.47467 -37.2832 258.735 45.6635
lowerback 3.71325 13.1719 10.4387
upperback -4.61075 18.2377 0.086532
thorax -3.80401 8.6758 -6.15098
lowerneck 5.6591 -12.6361 -14.1543
upperneck 15.0697 -18.5788 6.565
head 5.61039 -9.72121 3.36924
rclavicle -1.24806e-013 5.36719e-015
rhumerus -30.2056 24.7439 -99.8299
rradius 81.175
rwrist 5.25642
rhand 3.15561 74.8171
rfingers 7.12502
rthumb 28.6092 46.9868
lclavicle -1.24806e-013 5.36719e-015
lhumerus -80.5521 16.7237 8.44606
lradius 36.5387
lwrist 2.66844
lhand -15.5714 38.4708
lfingers 7.12502
lthumb 10.6136 68.1828
rfemur 11.6224 -8.447 24.1495
rtibia 21.6963
rfoot 7.93202 -0.661787
rtoes -33.3681
lfemur -47.1695 14.5757 -25.1084
ltibia 51.0315
lfoot -15.1851 10.8455
ltoes 22.2371
862
root 4.29172 15.8141 1.56317 -48.8423 261.805 56.9508
lowerback 3.20034 13.2525 10.5893
upperback -4.73442 18.2813 -0.364237
thorax -3.45648 8.71438 -6.52737
lowerneck 5.30393 -12.3424 -13.9346
upperneck 14.75 -18.0402 6.34472
head 5.46781 -9.43681 3.30792
rclavicle -4.48912e-014 -1.98785e-014
rhumerus -29.7103 24.753 -100.202
rradius 80.9929
rwrist 5.06871
rhand 3.51099 74.9882
rfingers 7.12502
rthumb 28.9487 47.2156
lclavicle -4.48912e-014 -1.98785e-014
lhumerus -81.6108 17.3715 6.80345
lradius 34.7991
lwrist 0.950235
lhand -16.0463 38.7765
lfingers 7.12502
lthumb 10.1555 68.5114
rfemur 8.36014 -9.40001 23.0516
rtibia 29.4578
rfoot 13.0154 -1.97012
rtoes -30.789
lfemur -44.4908 12.406 -26.5152
ltibia 50.7146
lfoot -15.5387 8.31175
ltoes 22.3047
863
root 3.87834 15.7485 1.65125 -77.0504 264.483 85.3016
lowerback 2.68342 13.273 10.6916
upperback -4.92881 18.2448 -0.920764
thorax -3.17596 8.70766 -7.00113
lowerneck 5.09326 -11.8671 -13.975
upperneck 13.9229 -17.2863 6.4594
head 5.17487 -9.04023 3.42361
rclavicle -1.89361e-013 -1.98785e-015
rhumerus -29.0971 24.6111 -100.365
rradius 80.8808
rwrist 4.72668
rhand 3.67087 75.1231
rfingers 7.12502
rthumb 29.1014 47.3768
lclavicle -1.89361e-013 -1.98785e-015
lhumerus -82.1336 17.6557 7.87084
lradius 34.4603
lwrist -0.208737
lhand -17.4282 41.9666
lfingers 7.12502
lthumb 8.82218 71.7622
rfemur 4.47579 -11.3298 21.7666
rtibia 37.5027
rfoot 16.0135 -3.01908
rtoes -33.6141
lfemur -43.1407 9.13366 -28.0834
ltibia 51.07
lfoot -16.3403 7.14638
ltoes 18.7159
864
root 3.4894 15.7098 1.71621 -122.748 264.483 131.205
lowerback 2.41936 13.3234 10.5832
upperback -5.12066 18.274 -1.43881
thorax -3.09229 8.72774 -7.41009
lowerneck 4.18113 -11.1047 -13.8171
upperneck 13.4962 -16.0339 6.26638
head 5.02685 -8.39002 3.40106
rclavicle 7.49294e-014 -1.55052e-014
rhumerus -28.2863 24.5919 -100.41
rradius 80.7954
rwrist 4.39595
rhand 3.83637 74.8968
rfingers 7.12502
rthumb 29.2595 47.1779
lclavicle 7.49294e-014 -1.55052e-014
lhumerus -82.3906 17.9991 9.67174
lradius 34.3559
lwrist -1.96603
lhand -17.9287 43.2367
lfingers 7.12502
lthumb 8.33918 73.0521
rfemur -0.386247 -13.9107 20.5027
rtibia 46.1646
rfoot 18.4411 -3.21389
rtoes -31.4484
lfemur -41.8488 5.52466 -29.3105
ltibia 51.7053
lfoot -16.9927 6.61197
ltoes 18.0565
865
root 3.1412 15.6475 1.72953 -150.15 261.032 158.789
lowerback 2.41697 13.1846 10.5952
upperback -5.25658 18.0932 -1.74903
thorax -3.1668 8.62891 -7.75319
lowerneck 3.26646 -10.0867 -12.7222
upperneck 12.6662 -14.3137 5.20471
head 4.58322 -7.49558 3.02827
rclavicle 5.54858e-014 2.06736e-014
rhumerus -26.9904 24.8248 -100.191
rradius 80.6771
rwrist 4.14379
rhand 4.36974 73.9553
rfingers 7.12502
rthumb 29.7686 46.3263
lclavicle 5.54858e-014 2.06736e-014
lhumerus -82.1524 18.5459 12.7158
lradius 34.2018
lwrist -4.13575
lhand -18.3114 43.3109
lfingers 7.12502
lthumb 7.9698 73.1406
rfemur -5.89169 -16.698 20.1562
rtibia 55.0043
rfoot 17.874 -2.38708
rtoes -23.216
lfemur -40.9131 2.10051 -29.9335
ltibia 52.708
lfoot -16.9404 5.7286
ltoes 19.0673
866
root 2.84642 15.5627 1.70465 -166.465 256.008 175.275
lowerback 2.83132 12.7459 9.61224
upperback -5.0642 17.493 -2.27487
thorax -3.40763 8.35973 -7.94764
lowerneck 2.21568 -8.80108 -11.0142
upperneck 11.4494 -12.1918 3.54032
head 3.97722 -6.39201 2.39541
rclavicle -7.73397e-014 -3.02153e-014
rhumerus -24.9128 25.2208 -99.4306
rradius 80.5382
rwrist 3.92546
rhand 4.94015 72.9717
rfingers 7.12502
rthumb 30.3129 45.4416
lclavicle -7.73397e-014 -3.02153e-014
lhumerus -81.1049 19.5131 17.0654
lradius 33.9219
lwrist -5.72704
lhand -18.2591 42.4623
lfingers 7.12502
lthumb 8.02028 72.2902
rfemur -11.6304 -20.2578 18.6877
rtibia 62.9864
rfoot 13.7435 -1.23188
rtoes -25.9319
lfemur -39.8622 -0.964665 -31.817
ltibia 53.3172
lfoot -15.9381 3.69897
ltoes 18.5465
